<?xml version="1.0" encoding="UTF-8"?>
<!-- Do not edit this file with editors other than draw.io -->
<!DOCTYPE svg PUBLIC "-//W3C//DTD SVG 1.1//EN" "http://www.w3.org/Graphics/SVG/1.1/DTD/svg11.dtd">
<svg xmlns="http://www.w3.org/2000/svg" style="background: #ffffff; background-color: light-dark(#ffffff, var(--ge-dark-color, #121212)); color-scheme: light dark;" xmlns:xlink="http://www.w3.org/1999/xlink" version="1.1" width="80px" height="55px" viewBox="-0.5 -0.5 80 55" content="&lt;mxfile host=&quot;app.diagrams.net&quot; agent=&quot;Mozilla/5.0 (Windows NT 10.0; Win64; x64) AppleWebKit/537.36 (KHTML, like Gecko) Chrome/131.0.0.0 Safari/537.36&quot; version=&quot;26.0.6&quot; scale=&quot;1&quot; border=&quot;0&quot;&gt;&#10;  &lt;diagram name=&quot;Page-1&quot; id=&quot;UAlc9FHREIa7GRqVwjMb&quot;&gt;&#10;    &lt;mxGraphModel dx=&quot;1434&quot; dy=&quot;738&quot; grid=&quot;1&quot; gridSize=&quot;10&quot; guides=&quot;1&quot; tooltips=&quot;1&quot; connect=&quot;1&quot; arrows=&quot;1&quot; fold=&quot;1&quot; page=&quot;1&quot; pageScale=&quot;1&quot; pageWidth=&quot;850&quot; pageHeight=&quot;1100&quot; math=&quot;0&quot; shadow=&quot;0&quot;&gt;&#10;      &lt;root&gt;&#10;        &lt;mxCell id=&quot;0&quot; /&gt;&#10;        &lt;mxCell id=&quot;1&quot; parent=&quot;0&quot; /&gt;&#10;        &lt;object label=&quot;&quot; id=&quot;testes&quot;&gt;&#10;          &lt;mxCell style=&quot;shape=mxgraph.cisco.routers.router;html=1;pointerEvents=1;dashed=0;strokeWidth=2;verticalLabelPosition=bottom;verticalAlign=top;align=center;outlineConnect=0;fillColor=#A9C4EB;&quot; parent=&quot;1&quot; vertex=&quot;1&quot;&gt;&#10;            &lt;mxGeometry x=&quot;347&quot; y=&quot;300&quot; width=&quot;78&quot; height=&quot;53&quot; as=&quot;geometry&quot; /&gt;&#10;          &lt;/mxCell&gt;&#10;        &lt;/object&gt;&#10;      &lt;/root&gt;&#10;    &lt;/mxGraphModel&gt;&#10;  &lt;/diagram&gt;&#10;&lt;/mxfile&gt;&#10;"><defs/><rect fill="#ffffff" width="100%" height="100%" x="0" y="0" style="fill: light-dark(#ffffff, var(--ge-dark-color, #121212));"/><g><g data-cell-id="0"><g data-cell-id="1"><g data-cell-id="testes"><g><rect x="1" y="1" width="78" height="53" fill="none" stroke="none" pointer-events="all"/><path d="M 79 16.38 C 79 24.85 61.61 31.74 39.99 31.74 C 18.39 31.74 1 24.85 1 16.38 C 1 38.64 1 38.64 1 38.64 C 1 47.11 18.39 54 39.99 54 C 61.61 54 79 47.11 79 38.64 Z M 39.99 31.74 C 61.61 31.74 79 24.85 79 16.38 C 79 7.89 61.61 1 39.99 1 C 18.39 1 1 7.89 1 16.38 C 1 24.85 18.39 31.74 39.99 31.74 Z" fill="#a9c4eb" stroke="#000000" stroke-width="2" stroke-linejoin="round" stroke-miterlimit="10" pointer-events="all" style="fill: light-dark(rgb(169, 196, 235), rgb(51, 74, 108)); stroke: light-dark(rgb(0, 0, 0), rgb(255, 255, 255));"/><path d="M 31.04 10.54 L 34.2 15.31 L 22.08 17.97 L 24.72 15.84 L 6.27 12.66 L 11.01 8.95 L 28.92 12.13 Z M 48.44 22.2 L 45.8 17.43 L 56.86 14.79 L 55.28 16.9 L 73.2 20.08 L 68.99 23.26 L 50.54 20.08 Z M 42.11 7.89 L 54.22 4.71 L 54.76 9.48 L 51.6 8.95 L 45.8 14.25 L 39.99 13.2 L 45.8 8.43 Z M 36.83 26.97 L 25.24 29.1 L 24.72 23.26 L 28.4 24.33 L 34.73 18.49 L 40.53 19.56 L 33.67 25.92 Z" fill="#ffffff" stroke="none" pointer-events="all" style="fill: light-dark(rgb(255, 255, 255), rgb(18, 18, 18));"/></g></g></g></g></g></svg>